/* XPM */
static char * Footeware_xpm[] = {
"32 32 927 2",
"  	c #AA2D00",
". 	c #9D1C00",
"+ 	c #A51C00",
"@ 	c #AD2800",
"# 	c #BC2800",
"$ 	c #BF3900",
"% 	c #CE4B00",
"& 	c #D35800",
"* 	c #D36000",
"= 	c #DC6900",
"- 	c #DD6900",
"; 	c #D86400",
"> 	c #DE6900",
", 	c #DC6600",
"' 	c #D76000",
") 	c #D66200",
"! 	c #D86200",
"~ 	c #D85600",
"{ 	c #D14A00",
"] 	c #C94800",
"^ 	c #C23300",
"/ 	c #BB3100",
"( 	c #B03000",
"_ 	c #AB2500",
": 	c #9F1700",
"< 	c #941E00",
"[ 	c #941C00",
"} 	c #9B1F00",
"| 	c #A12600",
"1 	c #AD2A00",
"2 	c #B13200",
"3 	c #B33500",
"4 	c #A01F00",
"5 	c #A42300",
"6 	c #B02B00",
"7 	c #C03800",
"8 	c #C94B00",
"9 	c #CF5D00",
"0 	c #DC7300",
"a 	c #E1820A",
"b 	c #E38D13",
"c 	c #E9941B",
"d 	c #EA9320",
"e 	c #EA9221",
"f 	c #EB9421",
"g 	c #EB901D",
"h 	c #E68D1B",
"i 	c #E48B18",
"j 	c #E38B17",
"k 	c #DF8512",
"l 	c #DF790C",
"m 	c #DB6800",
"n 	c #CE5400",
"o 	c #C73E00",
"p 	c #CB3400",
"q 	c #9D1400",
"r 	c #8E1600",
"s 	c #8F1A00",
"t 	c #8D1800",
"u 	c #8B1900",
"v 	c #971C00",
"w 	c #982100",
"x 	c #9D2800",
"y 	c #A51E00",
"z 	c #B42E00",
"A 	c #C63F00",
"B 	c #D35700",
"C 	c #E27500",
"D 	c #E5880C",
"E 	c #EE9D24",
"F 	c #F5AC35",
"G 	c #F8B643",
"H 	c #FCBE4A",
"I 	c #FCBB4C",
"J 	c #FABA4A",
"K 	c #F8B949",
"L 	c #F6B948",
"M 	c #F6B849",
"N 	c #F9BB52",
"O 	c #FABD59",
"P 	c #F7BB56",
"Q 	c #F0B452",
"R 	c #F0A43D",
"S 	c #E58D19",
"T 	c #D97100",
"U 	c #D95B00",
"V 	c #C73C00",
"W 	c #B62700",
"X 	c #9F2000",
"Y 	c #971600",
"Z 	c #831200",
"` 	c #831100",
" .	c #8A1500",
"..	c #8E1B00",
"+.	c #922000",
"@.	c #B32B00",
"#.	c #C84100",
"$.	c #D75D00",
"%.	c #E8820B",
"&.	c #F19F25",
"*.	c #F7B53F",
"=.	c #FDC459",
"-.	c #FFD16D",
";.	c #FFDD7E",
">.	c #FFE383",
",.	c #FFE185",
"'.	c #FFDE83",
").	c #FFDD80",
"!.	c #FFDC80",
"~.	c #FFE489",
"{.	c #FFEA97",
"].	c #FFE694",
"^.	c #FFE092",
"/.	c #FFD980",
"(.	c #FAC059",
"_.	c #EDA639",
":.	c #E98F14",
"<.	c #DE6E00",
"[.	c #D14E00",
"}.	c #BE3900",
"|.	c #A62200",
"1.	c #8F1300",
"2.	c #8B1100",
"3.	c #8C1600",
"4.	c #8E1A00",
"5.	c #C33500",
"6.	c #D45300",
"7.	c #EF8209",
"8.	c #FAA62E",
"9.	c #F9C34B",
"0.	c #FFD568",
"a.	c #FFE183",
"b.	c #FFF392",
"c.	c #FFF4AE",
"d.	c #FFFFA7",
"e.	c #FFFFB4",
"f.	c #F6E49D",
"g.	c #FFE69C",
"h.	c #FFFFB6",
"i.	c #FFFFAE",
"j.	c #FFFFB2",
"k.	c #FFFFBD",
"l.	c #FFFFC1",
"m.	c #E5D794",
"n.	c #FFE994",
"o.	c #FCD26E",
"p.	c #F4BC4B",
"q.	c #EB9D2C",
"r.	c #E47F02",
"s.	c #D35B00",
"t.	c #C23500",
"u.	c #A92100",
"v.	c #981C00",
"w.	c #881100",
"x.	c #8D1600",
"y.	c #8E1800",
"z.	c #C33700",
"A.	c #E06C00",
"B.	c #FB9A1D",
"C.	c #FFBF4C",
"D.	c #FFD863",
"E.	c #FFE680",
"F.	c #FFEF94",
"G.	c #FFFFBA",
"H.	c #C9C092",
"I.	c #9D9F7A",
"J.	c #C0C1A0",
"K.	c #C3D09B",
"L.	c #B9C4B2",
"M.	c #C7CECC",
"N.	c #C8D4D0",
"O.	c #C5CEC8",
"P.	c #DFE8C2",
"Q.	c #C2C792",
"R.	c #FEFDBA",
"S.	c #FFF7B6",
"T.	c #FFED93",
"U.	c #FFD875",
"V.	c #FAC658",
"W.	c #F3B031",
"X.	c #E88C13",
"Y.	c #DB5E00",
"Z.	c #C23E00",
"`.	c #A92400",
" +	c #8C1400",
".+	c #8C1300",
"++	c #8D1900",
"@+	c #CA4800",
"#+	c #E87E01",
"$+	c #FEAC30",
"%+	c #FFD05F",
"&+	c #FFE373",
"*+	c #FFED8F",
"=+	c #FFEE96",
"-+	c #9D9265",
";+	c #E9F1A9",
">+	c #CEDAF6",
",+	c #FFFFFF",
"'+	c #FDFFFF",
")+	c #FBFFFF",
"!+	c #FCFFFF",
"~+	c #CCE9E1",
"{+	c #DEE7D0",
"]+	c #B5B785",
"^+	c #FFEF96",
"/+	c #FFE882",
"(+	c #FED460",
"_+	c #FAB444",
":+	c #F18E14",
"<+	c #C83500",
"[+	c #982200",
"}+	c #901800",
"|+	c #951F00",
"1+	c #D24C00",
"2+	c #EB860A",
"3+	c #FFB941",
"4+	c #FFD56F",
"5+	c #FFE272",
"6+	c #FFFFA2",
"7+	c #AA9966",
"8+	c #DEFBFF",
"9+	c #B1D4F1",
"0+	c #4D6881",
"a+	c #73809A",
"b+	c #F9FFFF",
"c+	c #F8FFFF",
"d+	c #F7FFFF",
"e+	c #F6FFFF",
"f+	c #F4FFFF",
"g+	c #F3FFFF",
"h+	c #F5FFFF",
"i+	c #B4B98A",
"j+	c #565731",
"k+	c #E0C676",
"l+	c #FFF18D",
"m+	c #FFD06C",
"n+	c #FAB642",
"o+	c #E78812",
"p+	c #D25100",
"q+	c #BC3500",
"r+	c #AA2200",
"s+	c #9A1900",
"t+	c #D54D00",
"u+	c #EE860C",
"v+	c #FCBD40",
"w+	c #FFDE70",
"x+	c #FFEB8F",
"y+	c #AA9B5B",
"z+	c #738085",
"A+	c #CEFAFF",
"B+	c #808EA9",
"C+	c #00000F",
"D+	c #00000C",
"E+	c #000000",
"F+	c #8AA2B3",
"G+	c #EEFFFF",
"H+	c #ECFFFF",
"I+	c #EAFFFF",
"J+	c #E9FFFF",
"K+	c #E8FFFF",
"L+	c #E5FFFF",
"M+	c #65695C",
"N+	c #E6DDA3",
"O+	c #FFF29A",
"P+	c #FFF096",
"Q+	c #FDD46F",
"R+	c #F1AD42",
"S+	c #DD8307",
"T+	c #CF4800",
"U+	c #B52F00",
"V+	c #991800",
"W+	c #DB4A00",
"X+	c #F18F1E",
"Y+	c #FFC149",
"Z+	c #FFE075",
"`+	c #FFF69C",
" @	c #999B80",
".@	c #EDFFFF",
"+@	c #94A6C2",
"@@	c #A0B4D9",
"#@	c #E4FFFF",
"$@	c #E1FFFF",
"%@	c #E0FFFF",
"&@	c #DFFFFF",
"*@	c #E7FFFF",
"=@	c #70958E",
"-@	c #C3DBE6",
";@	c #ADC1B9",
">@	c #FFF6A4",
",@	c #FFF083",
"'@	c #F9D26B",
")@	c #EAAA38",
"!@	c #DD6B00",
"~@	c #C53E00",
"{@	c #AF2800",
"]@	c #DD4C00",
"^@	c #F99322",
"/@	c #FFC857",
"(@	c #FFE57E",
"_@	c #FFFF9C",
":@	c #5D7791",
"<@	c #6E6A65",
"[@	c #000003",
"}@	c #F7DBCA",
"|@	c #DEC1B3",
"1@	c #C3C1AC",
"2@	c #839BA2",
"3@	c #E6FFFF",
"4@	c #DCFFFF",
"5@	c #C8EDFF",
"6@	c #635536",
"7@	c #EFE283",
"8@	c #B88736",
"9@	c #DEC256",
"0@	c #D5E6FF",
"a@	c #F1FFFF",
"b@	c #CADDBA",
"c@	c #665D3E",
"d@	c #F9C361",
"e@	c #E5951F",
"f@	c #D95800",
"g@	c #C33A00",
"h@	c #E14D00",
"i@	c #F69923",
"j@	c #FFD157",
"k@	c #FFFF9F",
"l@	c #8C795A",
"m@	c #638BA1",
"n@	c #000620",
"o@	c #91623D",
"p@	c #A67146",
"q@	c #DAB090",
"r@	c #FFFFEF",
"s@	c #7C7C7F",
"t@	c #444A5B",
"u@	c #71858C",
"v@	c #C7F4FF",
"w@	c #E3FFFF",
"x@	c #D1C17B",
"y@	c #C1AA51",
"z@	c #CB8B22",
"A@	c #E9A325",
"B@	c #878640",
"C@	c #9ACAD5",
"D@	c #F2FFFF",
"E@	c #7C8B78",
"F@	c #FFFFB3",
"G@	c #FDD875",
"H@	c #F6AF3C",
"I@	c #E77800",
"J@	c #CB4F00",
"K@	c #DB5400",
"L@	c #FAA82B",
"M@	c #FFE979",
"N@	c #70603A",
"O@	c #716E59",
"P@	c #47240A",
"Q@	c #ECB686",
"R@	c #FFF7DD",
"S@	c #FFFFE4",
"T@	c #6891A3",
"U@	c #201813",
"V@	c #20354B",
"W@	c #EBFFFF",
"X@	c #F1C66B",
"Y@	c #CAB050",
"Z@	c #E2982B",
"`@	c #FFB043",
" #	c #E09C26",
".#	c #FF9C18",
"+#	c #C1B050",
"@#	c #94B1AE",
"##	c #FFFFB9",
"$#	c #FFE88C",
"%#	c #F7C554",
"&#	c #EC901C",
"*#	c #E46100",
"=#	c #FEB242",
"-#	c #FFDE86",
";#	c #FFFFAF",
">#	c #B2B474",
",#	c #517E96",
"'#	c #00031F",
")#	c #D0C600",
"!#	c #12060F",
"~#	c #61300E",
"{#	c #D48338",
"]#	c #FFD7A1",
"^#	c #4A4E48",
"/#	c #B2C7DF",
"(#	c #27251F",
"_#	c #647782",
":#	c #B88B30",
"<#	c #E0BD4B",
"[#	c #CC730D",
"}#	c #DC8D24",
"|#	c #F7D170",
"1#	c #E27606",
"2#	c #EB890E",
"3#	c #CBB463",
"4#	c #EDE9AA",
"5#	c #FFEB93",
"6#	c #FCCD5B",
"7#	c #F4A82C",
"8#	c #E2780B",
"9#	c #E46900",
"0#	c #FFB852",
"a#	c #D5AB60",
"b#	c #FAFEB3",
"c#	c #8F8E78",
"d#	c #5C7391",
"e#	c #201F00",
"f#	c #CFCFA3",
"g#	c #2B140A",
"h#	c #451D01",
"i#	c #E3AC74",
"j#	c #AB916E",
"k#	c #FFF9F0",
"l#	c #F7FBFF",
"m#	c #C3E2E9",
"n#	c #334758",
"o#	c #97B3C6",
"p#	c #8F6115",
"q#	c #D4A337",
"r#	c #CA5200",
"s#	c #C44001",
"t#	c #FFAC40",
"u#	c #C17523",
"v#	c #FF890C",
"w#	c #8A7838",
"x#	c #FFFFC7",
"y#	c #FFF097",
"z#	c #FBD46A",
"A#	c #F8B340",
"B#	c #ED8D19",
"C#	c #EA760E",
"D#	c #FFC866",
"E#	c #847145",
"F#	c #FFFFCB",
"G#	c #444E63",
"H#	c #100300",
"I#	c #8F9488",
"J#	c #FFFFF2",
"K#	c #DAC5A4",
"L#	c #0B040B",
"M#	c #697C85",
"N#	c #DDF5FF",
"O#	c #DEE6EF",
"P#	c #7E777A",
"Q#	c #613D1F",
"R#	c #B8D2E5",
"S#	c #A9924D",
"T#	c #8B6309",
"U#	c #DF9915",
"V#	c #601200",
"W#	c #D46302",
"X#	c #851A00",
"Y#	c #D46B00",
"Z#	c #494013",
"`#	c #FFFFBE",
" $	c #FFF0A0",
".$	c #FCDD73",
"+$	c #F8BB49",
"@$	c #ED971E",
"#$	c #EF821B",
"$$	c #FFD179",
"%$	c #FFFFB0",
"&$	c #F2EDAB",
"*$	c #C7D4E6",
"=$	c #5C5801",
"-$	c #593200",
";$	c #000002",
">$	c #726C66",
",$	c #8C7461",
"'$	c #FFF4BD",
")$	c #77888B",
"!$	c #76817E",
"~$	c #766453",
"{$	c #573820",
"]$	c #638295",
"^$	c #D6FFFF",
"/$	c #B7E3EA",
"($	c #DAFFFF",
"_$	c #335763",
":$	c #582805",
"<$	c #93B3D4",
"[$	c #EFFFFF",
"}$	c #FFFFC5",
"|$	c #FFFDB3",
"1$	c #FFE27C",
"2$	c #FEC153",
"3$	c #F59D24",
"4$	c #EC8823",
"5$	c #FFD57E",
"6$	c #B5AE8A",
"7$	c #D6E0F6",
"8$	c #FFB500",
"9$	c #AC7100",
"0$	c #090500",
"a$	c #564D45",
"b$	c #684F57",
"c$	c #3E1F20",
"d$	c #754424",
"e$	c #5A544A",
"f$	c #927A64",
"g$	c #807573",
"h$	c #C1C1C8",
"i$	c #8B9A92",
"j$	c #C9F7FF",
"k$	c #D4D591",
"l$	c #CACD95",
"m$	c #E1A540",
"n$	c #F69D3A",
"o$	c #ACA8A0",
"p$	c #D4DFA8",
"q$	c #FFFFB7",
"r$	c #FFE78F",
"s$	c #FFC355",
"t$	c #F5A12A",
"u$	c #ED891D",
"v$	c #FFD87B",
"w$	c #FFFFB8",
"x$	c #BDBF92",
"y$	c #BCD4E7",
"z$	c #E7B700",
"A$	c #D88400",
"B$	c #966700",
"C$	c #E99900",
"D$	c #2B1600",
"E$	c #323100",
"F$	c #977D23",
"G$	c #473335",
"H$	c #543F1C",
"I$	c #4C3C30",
"J$	c #271A16",
"K$	c #362620",
"L$	c #A05B26",
"M$	c #775238",
"N$	c #88A5AD",
"O$	c #DFF4FF",
"P$	c #C9C459",
"Q$	c #FFE567",
"R$	c #492C04",
"S$	c #D3732E",
"T$	c #BEAA8B",
"U$	c #B5C5C2",
"V$	c #DCE1A5",
"W$	c #FFF19F",
"X$	c #FFC958",
"Y$	c #F3A330",
"Z$	c #E68219",
"`$	c #FFD277",
" %	c #FFFFBC",
".%	c #9C9F71",
"+%	c #DBD2C0",
"@%	c #444706",
"#%	c #846A00",
"$%	c #CE8900",
"%%	c #FFC500",
"&%	c #FFFF00",
"*%	c #190C00",
"=%	c #2A1E00",
"-%	c #FEFFFF",
";%	c #D3EDF8",
">%	c #74520D",
",%	c #FF7400",
"'%	c #848270",
")%	c #BD9236",
"!%	c #FAC94D",
"~%	c #6D3905",
"{%	c #8F5037",
"]%	c #A2856C",
"^%	c #E6FCFF",
"/%	c #051327",
"(%	c #FFFDAE",
"_%	c #FFD468",
":%	c #F5A22E",
"<%	c #EA7F0E",
"[%	c #FEC669",
"}%	c #FFF79E",
"|%	c #DBD2A9",
"1%	c #FFFFDE",
"2%	c #94A7BD",
"3%	c #313600",
"4%	c #FCB000",
"5%	c #A55B00",
"6%	c #FFA200",
"7%	c #FFBB00",
"8%	c #080F00",
"9%	c #D5C000",
"0%	c #A15B16",
"a%	c #6A2B00",
"b%	c #D74E00",
"c%	c #BC5900",
"d%	c #F7DE63",
"e%	c #FFE458",
"f%	c #B79F58",
"g%	c #EF9F4E",
"h%	c #D1BE75",
"i%	c #FFFFE9",
"j%	c #FFFFB5",
"k%	c #FFDC6D",
"l%	c #FDAD35",
"m%	c #EB7600",
"n%	c #FFC05C",
"o%	c #FFF29C",
"p%	c #B8BA7B",
"q%	c #718494",
"r%	c #977713",
"s%	c #B97B00",
"t%	c #FFA700",
"u%	c #D5B300",
"v%	c #827600",
"w%	c #988800",
"x%	c #A58D50",
"y%	c #F3E470",
"z%	c #FFDA3F",
"A%	c #9C721A",
"B%	c #BB4B00",
"C%	c #A67C29",
"D%	c #FFB131",
"E%	c #A2541C",
"F%	c #BB6B24",
"G%	c #8C591D",
"H%	c #DDF2FF",
"I%	c #626663",
"J%	c #FFFCBB",
"K%	c #FFDA7B",
"L%	c #F8B437",
"M%	c #EA6D00",
"N%	c #FFBD58",
"O%	c #FFF793",
"P%	c #B9B083",
"Q%	c #D3D8B6",
"R%	c #E3EBFF",
"S%	c #5D6578",
"T%	c #000017",
"U%	c #000011",
"V%	c #AD9441",
"W%	c #89621F",
"X%	c #261C00",
"Y%	c #FFE045",
"Z%	c #FFD33B",
"`%	c #3B0100",
" &	c #D86B00",
".&	c #DF952D",
"+&	c #D87611",
"@&	c #FF9446",
"#&	c #A36230",
"$&	c #FFF384",
"%&	c #FFFFF0",
"&&	c #948D5A",
"*&	c #FFF581",
"=&	c #FFB545",
"-&	c #E36800",
";&	c #FDB755",
">&	c #FFED8E",
",&	c #FFFEAE",
"'&	c #F4FBCC",
")&	c #FFFFD8",
"!&	c #BCC8AE",
"~&	c #8F5427",
"{&	c #1B1314",
"]&	c #3F536D",
"^&	c #E9C550",
"/&	c #C39234",
"(&	c #D16100",
"_&	c #7E1F00",
":&	c #440D00",
"<&	c #FFA114",
"[&	c #600600",
"}&	c #861800",
"|&	c #CC8015",
"1&	c #B0692C",
"2&	c #81481B",
"3&	c #884226",
"4&	c #1A0010",
"5&	c #967849",
"6&	c #8A7C62",
"7&	c #A9964D",
"8&	c #FFB742",
"9&	c #E16100",
"0&	c #FBB044",
"a&	c #FFE789",
"b&	c #D7D69F",
"c&	c #FFFFDA",
"d&	c #6B7665",
"e&	c #817D5C",
"f&	c #70693A",
"g&	c #A99F6C",
"h&	c #DA9863",
"i&	c #727076",
"j&	c #96A2AB",
"k&	c #607CA4",
"l&	c #6F5923",
"m&	c #F37900",
"n&	c #6E2800",
"o&	c #DB5300",
"p&	c #671A00",
"q&	c #611600",
"r&	c #380000",
"s&	c #811E00",
"t&	c #B93900",
"u&	c #A56339",
"v&	c #461C20",
"w&	c #513217",
"x&	c #D7B16C",
"y&	c #D4A94F",
"z&	c #FBB242",
"A&	c #E25800",
"B&	c #F7A13A",
"C&	c #FFE68B",
"D&	c #ABAF78",
"E&	c #FDFFD8",
"F&	c #273039",
"G&	c #757659",
"H&	c #0B0E10",
"I&	c #120304",
"J&	c #AEA2A2",
"K&	c #F0F5FA",
"L&	c #D9E1EF",
"M&	c #E2E2DD",
"N&	c #544531",
"O&	c #B28B20",
"P&	c #78560F",
"Q&	c #A6560D",
"R&	c #331F1C",
"S&	c #563C2A",
"T&	c #FFD454",
"U&	c #5D3115",
"V&	c #3A0D00",
"W&	c #67350F",
"X&	c #403135",
"Y&	c #7C381C",
"Z&	c #552F17",
"`&	c #1A071C",
" *	c #190304",
".*	c #8F703E",
"+*	c #D9983F",
"@*	c #F49E35",
"#*	c #D65400",
"$*	c #F39B2B",
"%*	c #886A32",
"&*	c #8A9368",
"**	c #7C735B",
"=*	c #464440",
"-*	c #FFE784",
";*	c #E3A444",
">*	c #87501D",
",*	c #341E13",
"'*	c #7E6251",
")*	c #3E2420",
"!*	c #050512",
"~*	c #4B2D1C",
"{*	c #8D521A",
"]*	c #422C24",
"^*	c #494C2F",
"/*	c #2C3635",
"(*	c #F48911",
"_*	c #120000",
":*	c #422309",
"<*	c #290000",
"[*	c #3C1005",
"}*	c #654536",
"|*	c #F89C40",
"1*	c #6B1F33",
"2*	c #301619",
"3*	c #24202B",
"4*	c #402617",
"5*	c #001317",
"6*	c #D94D00",
"7*	c #EE8E18",
"8*	c #FFCA5D",
"9*	c #FED66C",
"0*	c #3B3938",
"a*	c #4A451D",
"b*	c #D89645",
"c*	c #693B0D",
"d*	c #833C00",
"e*	c #8A4510",
"f*	c #7D4112",
"g*	c #764909",
"h*	c #A5792E",
"i*	c #AC6B33",
"j*	c #5F2500",
"k*	c #C72B00",
"l*	c #642404",
"m*	c #7F2300",
"n*	c #5B2100",
"o*	c #983500",
"p*	c #4F2104",
"q*	c #861E00",
"r*	c #A93500",
"s*	c #972B00",
"t*	c #4A1300",
"u*	c #6D1B00",
"v*	c #2E0500",
"w*	c #16000B",
"x*	c #3C0F12",
"y*	c #500D00",
"z*	c #923400",
"A*	c #DB5900",
"B*	c #EF8B18",
"C*	c #FFBB3C",
"D*	c #FFD669",
"E*	c #EAAD36",
"F*	c #BE751A",
"G*	c #652A00",
"H*	c #874300",
"I*	c #7C2A00",
"J*	c #722700",
"K*	c #D9862D",
"L*	c #ED9E3B",
"M*	c #DD9332",
"N*	c #BA5C16",
"O*	c #9A3B01",
"P*	c #9E3709",
"Q*	c #B3530B",
"R*	c #CD4503",
"S*	c #6A2714",
"T*	c #2C1C1E",
"U*	c #7A2400",
"V*	c #511100",
"W*	c #612200",
"X*	c #974200",
"Y*	c #7D4209",
"Z*	c #7D3202",
"`*	c #612511",
" =	c #95441D",
".=	c #AA571E",
"+=	c #8F501A",
"@=	c #B9551C",
"#=	c #E07601",
"$=	c #F6A230",
"%=	c #FFBA46",
"&=	c #FEC155",
"*=	c #E8A54B",
"==	c #E48E26",
"-=	c #451500",
";=	c #8D3D00",
">=	c #9E4D00",
",=	c #B1620F",
"'=	c #CC7F23",
")=	c #E9A13B",
"!=	c #FFB64E",
"~=	c #F09C34",
"{=	c #CF6A26",
"]=	c #4E1C09",
"^=	c #FF922B",
"/=	c #CC6E18",
"(=	c #D5590A",
"_=	c #7A2500",
":=	c #CB4100",
"<=	c #C64500",
"[=	c #C64600",
"}=	c #BA4B00",
"|=	c #C15408",
"1=	c #A75C1A",
"2=	c #B46B30",
"3=	c #B15F2B",
"4=	c #A24F17",
"5=	c #9C4811",
"6=	c #A34102",
"7=	c #F39720",
"8=	c #FEAF3D",
"9=	c #FEBA4C",
"0=	c #F0B14A",
"a=	c #D58B29",
"b=	c #A65F09",
"c=	c #713400",
"d=	c #963E00",
"e=	c #913E00",
"f=	c #9C4800",
"g=	c #AD5E10",
"h=	c #C77B22",
"i=	c #E29D38",
"j=	c #F8B34F",
"k=	c #FFBC59",
"l=	c #FFAE48",
"m=	c #E89733",
"n=	c #F18B38",
"o=	c #FC9233",
"p=	c #F29238",
"q=	c #DE7B27",
"r=	c #D1630E",
"s=	c #CC5A0A",
"t=	c #D75912",
"u=	c #CF550B",
"v=	c #C45A16",
"w=	c #BD5F14",
"x=	c #C06719",
"y=	c #B46413",
"z=	c #B4561C",
"A=	c #A24709",
"B=	c #953600",
"C=	c #F8B339",
"D=	c #FEC24E",
"E=	c #FCBB4E",
"F=	c #E19E3B",
"G=	c #C47823",
"H=	c #9D4D02",
"I=	c #8C3C00",
"J=	c #944501",
"K=	c #9C4F06",
"L=	c #A95C10",
"M=	c #BC6F21",
"N=	c #C87D23",
"O=	c #D78F2D",
"P=	c #F4AC4C",
"Q=	c #FFBF5C",
"R=	c #FFBD5A",
"S=	c #FBA143",
"T=	c #DA751E",
"U=	c #E97928",
"V=	c #FFA345",
"W=	c #FFBC5B",
"X=	c #FEA74D",
"Y=	c #E2822B",
"Z=	c #DE741F",
"`=	c #E07623",
" -	c #DA7921",
".-	c #D98428",
"+-	c #C57223",
"@-	c #BF6B1A",
"#-	c #BF6514",
"$-	c #B25706",
"%-	c #A04400",
"  . + @ # $ % & * = - ; > , ' ) ! ~ { ] ^ / ( _ : < [ } | 1 2 3 ",
"4 5 6 7 8 9 0 a b c d e f g h i j k l m n o p 6 q r s t u v w x ",
"y z A B C D E F G H I J K L M N O P Q R S T U V W X Y Z `  ...+.",
"@.#.$.%.&.*.=.-.;.>.,.'.).!.).~.{.].^./.(._.:.<.[.}.|.1.2.3.4...",
"5.6.7.8.9.0.a.b.c.d.e.f.g.h.i.j.k.h.l.m.n.o.p.q.r.s.t.u.v.w.x.y.",
"z.A.B.C.D.E.F.G.e.H.I.J.K.L.M.N.O.P.Q.R.S.T.U.V.W.X.Y.Z.`. +.+++",
"@+#+$+%+&+*+=+-+;+>+,+,+,+'+)+!+)+,+~+{+]+k.^+/+(+_+:+! <+[+}+|+",
"1+2+3+4+5+6+7+8+9+,+0+a+,+b+c+d+e+f+g+g+h+i+j+k+l+m+n+o+p+q+r+s+",
"t+u+v+w+x+y+z+A+B+C+D+E+F+c+G+H+I+J+K+L+f+J+M+N+O+P+Q+R+S+T+U+V+",
"W+X+Y+Z+`+ @.@!++@E+E+,+,+@@#@$@$@%@&@*@=@-@b+)+;@>@,@'@)@!@~@{@",
"]@^@/@(@_@'+:@E+E+<@[@}@|@1@2@3@&@4@5@6@7@8@9@0@a@b@c@~.d@e@f@g@",
"h@i@j@k@l@m@n@E+E+o@p@q@r@s@t@3@u@v@w@x@y@z@A@B@C@D@E@F@G@H@I@J@",
"K@L@M@N@O@E+E+E+E+E+P@Q@R@S@,+T@U@V@W@X@Y@Z@`@ #.#+#@###$#%#&#' ",
"*#=#-#;#>#,#'#)#!#E+~#{#]#,+^#/#(#_#J+:#<#[#}#|#1#2#3#4#5#6#7#8#",
"9#0#a#b#c#d#e#E+f#g#h#i#j#k#l#m#n#o#w@p#q#r#s#t#u#v#w#x#y#z#A#B#",
"C#D#E#F#G#H#E+E+I#J#K#L#M#N#O#P#Q#R#f+S#T#U#V#W#X#Y#Z#`# $.$+$@$",
"#$$$%$&$*$=$-$;$E+>$,$'$,+)$!$~${$]$#@H+^$/$($_$:$<$[$}$|$1$2$3$",
"4$5$h.6$7$E+8$9$0$a$b$c$d$e$f$g$h$,+i$J+.@j$k$l$m$n$o$p$q$r$s$t$",
"u$v$w$x$y$z$A$B$C$D$E$F$G$H$I$J$K$L$M$^$N$O$P$Q$R$S$T$U$V$W$X$Y$",
"Z$`$ %.%+%@%#%E+$%%%E+&%*%=%,+-%'+;%E+>%,%'%)%!%~%{%]%^%/%(%_%:%",
"<%[%}%|%1%2%3%4%5%6%7%&%8%9%,+,+,+)+0%a%b%c%d%e%f%g%h%,+i%j%k%l%",
"m%n%o%k.p%,+q%r%s%E+t%u%v%w%,+,+,+x%y%z%A%B%C%D%E%F%G%H%I%J%K%L%",
"M%N%O%P%Q%R%,+,+S%T%E+E+U%,+,+,+V%W%X%Y%Z%`% &.&+&@&#&$&%&&&*&=&",
"-&;&>&,&'&)&!&,+,+~&D+{&]&,+,+^&/&(&_&:&<&[&}&|&1&2&3&4&5&6&7&8&",
"9&0&a&b&c&d&e&f&g&h&E+E+i&j&k&l&m&n&o&p&q&r&s&t&E+u&v&E+w&x&y&z&",
"A&B&C&D&E&F&G&H&I&J&K&L&M&N&O&P&Q&R&S&T&U&V&W&E+X&Y&Z&`& *.*+*@*",
"#*$*%*&***=*-*;*>*E+,*'*)*!*~*{*]*^*/*(*, _*:*<*[*}*|*1*2*3*4*5*",
"6*7*8*9*0*a*b*c*d*e*f*g*h*i*j*k*l*m*n*o*p*q*r*s*t*u*v*E+w*x*y*z*",
"A*B*C*D*U.E*F*G*H*I*J*K*L*M*N*O*P*Q*R*S*T*U*V*W*X*Y*Z*`* =.=+=@=",
"#=$=%=&=*===E+-=;=>=,='=)=!=~={=]=^=/=(=_=:=<=[=}=|=1=2=3=4=5=6=",
"7=8=9=0=a=b=c=d=e=f=g=h=i=j=k=l=m=n=o=p=q=r=s=t=u=v=w=x=y=z=A=B=",
"C=D=E=F=G=H=I=J=K=L=M=N=O=P=Q=R=S=T=U=V=W=X=Y=Z=`= -.-+-@-#-$-%-"};
